<?xml version="1.0" encoding="UTF-8"?>
<!DOCTYPE svg PUBLIC "-//W3C//DTD SVG 1.1//EN" "http://www.w3.org/Graphics/SVG/1.1/DTD/svg11.dtd">
<!-- Creator: CorelDRAW -->
<svg xmlns="http://www.w3.org/2000/svg" width="3.33763in" height="3.33764in" version="1.1" style="shape-rendering:geometricPrecision; text-rendering:geometricPrecision; image-rendering:optimizeQuality; fill-rule:evenodd; clip-rule:evenodd"
viewBox="0 0 25873.29 25873.35">
 <defs>
  <style type="text/css">
   <![CDATA[
    .fil0 {fill:url(#id0)}
   ]]>
  </style>
  <radialGradient id="id0" gradientUnits="userSpaceOnUse" gradientTransform="matrix(0.999996 -0 -0 0.999998 0 0)" cx="12936.64" cy="12936.64" r="7603.39" fx="12936.64" fy="12936.64">
   <stop offset="0" style="stop-opacity:1; stop-color:#6CD4FF"/>
   <stop offset="1" style="stop-opacity:1; stop-color:#005194"/>
  </radialGradient>
 </defs>
 <g id="Layer_x0020_1">
  <metadata id="CorelCorpID_0Corel-Layer"/>
  <path class="fil0" d="M12936.64 0c2541.59,0 4911.65,733.48 6910.99,1999.53l-13821.99 0c1999.34,-1266.05 4369.41,-1999.53 6910.99,-1999.53zm9571.85 4233.93c2090.57,2297.73 3364.79,5351.47 3364.79,8702.77 0,3556.85 -1435.68,6778.42 -3759.08,9116.86 -24.66,-3430.9 -1017.77,-6143.3 -2979.42,-8137.12 0,-4104.68 827.57,-7332.23 2482.68,-9682.51l891.02 0zm-2252.23 19369.97c-294.12,202.22 -596.66,392.94 -907.62,570.75 -473.54,-1526.47 -710.38,-4118.11 -710.38,-7775.49 1092.39,496.59 1638.57,2532.4 1638.57,6107.47 0,356.59 -6.87,722.43 -20.57,1097.27zm-2173.27 1204.37c-1577.29,684.71 -3317.24,1065.08 -5146.35,1065.08 -2662.47,0 -5136.86,-804.71 -7193.91,-2183.65 468.81,105.05 960.45,157.6 1475.11,157.6 1721.34,0 3186.1,-653.82 4394.34,-1961.35 1208.3,-1307.58 1812.44,-2888.2 1812.44,-4741.96l0 -2482.68 3227.48 496.52c0,3376.48 355.86,6239.84 1067.58,8590.12 116.4,384.52 237.57,737.84 363.31,1060.31zm-17071.51 -6848.61c-651.32,-1544.29 -1011.48,-3241.58 -1011.48,-5022.96 0,-3351.3 1274.35,-6404.89 3364.85,-8702.77l4101.26 0c1423.44,993.08 2499.25,3641.3 3227.48,7944.66l-2482.71 0c-1986.16,0 -3682.65,554.45 -5089.49,1663.41 -1406.86,1108.96 -2110.31,2457.87 -2110.31,4046.78l0.4 70.87zm5709.83 4398c893.77,0 1737.85,-413.76 2532.34,-1241.39 794.49,-827.57 1357.21,-1903.39 1688.26,-3227.48l0 -3724.07 -1986.16 0c-1655.14,0 -3062.01,364.16 -4220.59,1092.39 -1158.62,728.29 -1737.91,1605.49 -1737.91,2631.68 0,1224.81 364.13,2275.82 1092.39,3153.02 728.23,877.23 1605.49,1315.86 2631.68,1315.86zm6454.97 -9930.79l3724.07 496.52c331.05,-4071.6 910.34,-6968.13 1737.91,-8689.47l-8441.19 0c1986.16,2383.43 2979.21,5114.39 2979.21,8192.94z"/>
 </g>
</svg>
